<?xml version="1.0" encoding="UTF-8"?>
<svg width="32" height="32" viewBox="0 0 32 32" fill="none" xmlns="http://www.w3.org/2000/svg">
    <path d="M16 2C8.268 2 2 8.268 2 16s6.268 14 14 14 14-6.268 14-14S23.732 2 16 2z" fill="#1b2838"/>
    <path d="M23 12c0-1.657-1.343-3-3-3s-3 1.343-3 3c0 .31.047.607.134.886L13 16.001c-.364-.225-.784-.357-1.234-.357-1.308 0-2.37 1.062-2.37 2.37 0 1.308 1.062 2.37 2.37 2.37.812 0 1.526-.409 1.951-1.032l4.134 2.066c-.005.06-.008.121-.008.183 0 1.308 1.062 2.37 2.37 2.37 1.308 0 2.37-1.062 2.37-2.37 0-1.308-1.062-2.37-2.37-2.37-.812 0-1.526.409-1.951 1.032l-4.134-2.066c.005-.06.008-.121.008-.183s-.003-.123-.008-.183l4.134-2.066c.425.623 1.139 1.032 1.951 1.032C21.938 16.797 23 15.735 23 14.427c0-.812-.409-1.526-1.032-1.951L23 12z" fill="#ff3333"/>
    <path class="flame" d="M16 7c-2.5 0-4 2-4 4 0 3 2.5 4 2.5 4S13 13 13 11c0-1 .5-2 1.5-2s1.5 1 1.5 2c0 2-1.5 4-1.5 4s2.5-1 2.5-4c0-2-1.5-4-4-4z" fill="#ff6b00">
        <animate attributeName="d" dur="1s" repeatCount="indefinite"
            values="M16 7c-2.5 0-4 2-4 4 0 3 2.5 4 2.5 4S13 13 13 11c0-1 .5-2 1.5-2s1.5 1 1.5 2c0 2-1.5 4-1.5 4s2.5-1 2.5-4c0-2-1.5-4-4-4z;
                    M16 7c-2.5 0-4 2-4 4.5 0 3 2.5 3.5 2.5 3.5S13 13.5 13 11.5c0-1 .5-2 1.5-2s1.5 1 1.5 2c0 2-1.5 3.5-1.5 3.5s2.5-0.5 2.5-3.5c0-2.5-1.5-4.5-4-4.5z;
                    M16 7c-2.5 0-4 2-4 4 0 3 2.5 4 2.5 4S13 13 13 11c0-1 .5-2 1.5-2s1.5 1 1.5 2c0 2-1.5 4-1.5 4s2.5-1 2.5-4c0-2-1.5-4-4-4z"
            keyTimes="0;0.5;1"/>
    </path>
</svg> 